<svg width="206" height="206" viewBox="0 0 206 206" fill="none" xmlns="http://www.w3.org/2000/svg">
<path d="M93.9509 187.452L96.1525 192.087L97.5402 192.197L97.8906 187.763L99.7089 187.907L98.8328 198.992L95.0048 198.689C94.1541 198.622 93.4481 198.417 92.8868 198.073C92.3148 197.728 91.9051 197.294 91.6575 196.772C91.3992 196.249 91.2945 195.678 91.3432 195.062C91.4004 194.339 91.6651 193.696 92.1375 193.134C92.5985 192.582 93.2733 192.234 94.1621 192.091L91.7817 187.28L93.9509 187.452ZM97.4255 193.649L95.4157 193.49C94.7352 193.436 94.2113 193.566 93.8442 193.879C93.4664 194.192 93.2548 194.635 93.2094 195.209C93.164 195.783 93.2988 196.243 93.6139 196.589C93.9281 196.946 94.4308 197.151 95.122 197.206L97.1317 197.365L97.4255 193.649Z" fill="#4361EE"/>
<path d="M77.9416 189.105C78.0158 188.782 78.1036 188.496 78.205 188.246L84.7693 189.757C84.8753 189.059 84.7474 188.45 84.3858 187.929C84.0242 187.407 83.5107 187.07 82.8454 186.917C81.8891 186.697 81.1213 186.942 80.5421 187.651L78.6242 187.21C79.066 186.479 79.6885 185.939 80.4918 185.587C81.2824 185.244 82.1818 185.188 83.1901 185.42C84.0113 185.609 84.7074 185.961 85.2785 186.476C85.8368 186.998 86.2265 187.635 86.4475 188.387C86.6558 189.146 86.6582 189.968 86.4548 190.851C86.2513 191.735 85.8963 192.469 85.3897 193.052C84.8704 193.644 84.2466 194.048 83.5183 194.263C82.7797 194.476 81.9894 194.486 81.1474 194.292C80.3366 194.106 79.6549 193.763 79.1022 193.263C78.5495 192.764 78.1706 192.151 77.9656 191.425C77.7581 190.71 77.7501 189.936 77.9416 189.105ZM79.6678 190.093C79.5274 190.75 79.6405 191.329 80.0069 191.83C80.3733 192.33 80.8943 192.658 81.57 192.813C82.1833 192.955 82.7537 192.878 83.2812 192.583C83.8063 192.299 84.1871 191.834 84.4234 191.188L79.6678 190.093Z" fill="#4361EE"/>
<path d="M74.1029 187.656C73.7797 188.48 73.3246 189.144 72.7377 189.647C72.141 190.146 71.4815 190.455 70.7593 190.572C70.0233 190.696 69.2977 190.618 68.5828 190.338C67.9373 190.085 67.4268 189.735 67.0514 189.29C66.6622 188.851 66.3976 188.387 66.2576 187.896L65.7903 189.088L64.0773 188.416L67.2959 180.209L69.0089 180.88L68.5299 182.102C68.9697 181.827 69.4886 181.659 70.0863 181.595C70.6841 181.532 71.3008 181.624 71.9363 181.874C72.6414 182.15 73.2167 182.582 73.6624 183.169C74.1042 183.767 74.3724 184.456 74.4668 185.238C74.5474 186.026 74.4261 186.832 74.1029 187.656ZM67.3967 184.992C67.1747 185.558 67.1011 186.096 67.1759 186.606C67.2407 187.113 67.419 187.55 67.7106 187.916C68.0023 188.283 68.3666 188.551 68.8036 188.723C69.2405 188.894 69.6905 188.945 70.1535 188.874C70.6126 188.814 71.0432 188.621 71.445 188.298C71.8331 187.98 72.1381 187.538 72.3601 186.972C72.5821 186.406 72.6626 185.865 72.6016 185.348C72.5308 184.828 72.3514 184.38 72.0636 184.003C71.762 183.633 71.3977 183.364 70.9707 183.197C70.5338 183.025 70.0838 182.975 69.6208 183.045C69.1577 183.116 68.7303 183.315 68.3383 183.642C67.9325 183.976 67.6186 184.426 67.3967 184.992Z" fill="#4361EE"/>
<path d="M55.9858 187.576L61.6349 177.171L63.2379 178.041L57.5888 188.447L55.9858 187.576Z" fill="#4361EE"/>
<path d="M42.1386 175.4L44.2578 172.917L41.3373 170.424L42.3034 169.292L45.2239 171.786L47.4367 169.194L44.1511 166.389L45.1172 165.257L49.79 169.246L42.5597 177.716L37.8869 173.726L38.853 172.595L42.1386 175.4Z" fill="#4361EE"/>
<path d="M39.4296 159.12C39.8925 159.636 40.2177 160.183 40.4054 160.76C40.578 161.336 40.6123 161.885 40.5083 162.408C40.3963 162.938 40.1489 163.389 39.7661 163.761L38.5056 162.356C38.7622 162.083 38.879 161.742 38.8559 161.332C38.8178 160.922 38.635 160.535 38.3074 160.169C37.9656 159.788 37.6306 159.559 37.3025 159.48C36.9594 159.401 36.6726 159.465 36.4423 159.671C36.1962 159.892 36.1203 160.175 36.2148 160.52C36.3022 160.857 36.5023 161.344 36.8151 161.98C37.1217 162.594 37.3503 163.112 37.5009 163.536C37.6516 163.96 37.6991 164.404 37.6436 164.869C37.5809 165.327 37.3352 165.748 36.9063 166.132C36.5569 166.446 36.1467 166.627 35.6756 166.677C35.1967 166.734 34.7029 166.647 34.1943 166.415C33.6786 166.176 33.1964 165.806 32.7478 165.305C32.0784 164.559 31.7313 163.788 31.7066 162.994C31.6668 162.199 31.9582 161.493 32.581 160.877L33.7987 162.235C33.5262 162.523 33.3988 162.852 33.4163 163.223C33.4339 163.594 33.6065 163.962 33.934 164.328C34.2545 164.685 34.5677 164.898 34.8736 164.968C35.1795 165.037 35.4436 164.973 35.666 164.773C35.8407 164.616 35.9307 164.421 35.9358 164.187C35.941 163.953 35.8975 163.713 35.8051 163.466C35.7049 163.227 35.5461 162.882 35.3289 162.432C35.0287 161.842 34.8108 161.335 34.6752 160.912C34.5245 160.489 34.4766 160.052 34.5313 159.601C34.586 159.151 34.8203 158.733 35.2341 158.348C35.6073 158.013 36.0334 157.817 36.5124 157.76C36.9914 157.703 37.4852 157.791 37.9938 158.022C38.4952 158.246 38.9738 158.612 39.4296 159.12Z" fill="#4361EE"/>
<path d="M26.9884 155.321L30.9824 152.517C31.253 152.327 31.4066 152.128 31.443 151.92C31.4645 151.709 31.368 151.451 31.1535 151.146L30.51 150.229L31.754 149.356L32.5814 150.534C33.0534 151.207 33.2578 151.832 33.1948 152.411C33.1319 152.989 32.7468 153.527 32.0397 154.023L28.0457 156.827L28.6433 157.678L27.4254 158.533L26.8278 157.682L25.0338 158.942L23.9766 157.436L25.7706 156.176L24.5387 154.421L25.7565 153.566L26.9884 155.321Z" fill="#4361EE"/>
<path d="M25.7112 148.112C24.9274 148.524 24.1491 148.728 23.376 148.724C22.5981 148.711 21.8975 148.513 21.2743 148.129C20.6367 147.741 20.1394 147.207 19.7822 146.527C19.4597 145.914 19.3022 145.316 19.3096 144.733C19.3026 144.147 19.4066 143.622 19.6216 143.16L18.4884 143.755L17.6327 142.126L25.4374 138.026L26.2931 139.655L25.1316 140.265C25.6437 140.346 26.1466 140.557 26.6401 140.901C27.1337 141.244 27.5392 141.717 27.8566 142.322C28.2089 142.992 28.3613 143.695 28.3141 144.431C28.2573 145.172 28.0089 145.869 27.5687 146.521C27.1142 147.17 26.495 147.7 25.7112 148.112ZM22.3837 141.709C21.8454 141.991 21.4375 142.35 21.16 142.785C20.8775 143.211 20.7266 143.658 20.7073 144.126C20.6881 144.594 20.7876 145.035 21.0059 145.451C21.2242 145.866 21.5314 146.199 21.9277 146.449C22.3145 146.703 22.7657 146.84 23.2814 146.858C23.7826 146.872 24.3024 146.737 24.8406 146.455C25.3789 146.172 25.794 145.815 26.0859 145.385C26.3729 144.945 26.5308 144.488 26.5594 144.015C26.5737 143.538 26.4742 143.096 26.2609 142.69C26.0426 142.275 25.7354 141.942 25.3391 141.692C24.9429 141.443 24.4894 141.313 23.9787 141.305C23.4536 141.291 22.9219 141.426 22.3837 141.709Z" fill="#4361EE"/>
<path d="M16.1779 134.305L20.7532 132.607C21.0632 132.492 21.2622 132.339 21.3503 132.147C21.4246 131.948 21.3969 131.674 21.267 131.324L20.8774 130.274L22.3024 129.745L22.8034 131.096C23.0891 131.866 23.128 132.522 22.9201 133.066C22.7122 133.61 22.2033 134.032 21.3932 134.332L16.818 136.03L17.1798 137.005L15.7847 137.522L15.423 136.547L13.3679 137.31L12.7278 135.585L14.7829 134.822L14.0371 132.812L15.4321 132.295L16.1779 134.305Z" fill="#4361EE"/>
<path d="M14.6264 118.591C14.9482 118.515 15.2438 118.467 15.5131 118.447L17.0596 125.003C17.7325 124.79 18.2228 124.406 18.5303 123.851C18.8378 123.296 18.9132 122.687 18.7565 122.022C18.5312 121.067 17.9723 120.486 17.0799 120.28L16.628 118.365C17.4783 118.438 18.2386 118.758 18.9089 119.323C19.5664 119.88 20.0139 120.662 20.2515 121.669C20.4449 122.49 20.4371 123.27 20.228 124.009C20.0061 124.741 19.607 125.372 19.0307 125.903C18.4416 126.425 17.7059 126.791 16.8234 126.999C15.941 127.207 15.1259 127.213 14.3782 127.017C13.6177 126.812 12.9798 126.431 12.4646 125.873C11.947 125.305 11.589 124.6 11.3906 123.76C11.1996 122.95 11.2059 122.187 11.4095 121.47C11.6131 120.754 11.9951 120.143 12.5555 119.638C13.1055 119.136 13.7958 118.787 14.6264 118.591ZM14.5029 120.576C13.8513 120.741 13.3821 121.098 13.0953 121.648C12.8086 122.198 12.7448 122.81 12.904 123.485C13.0484 124.097 13.3694 124.575 13.8667 124.918C14.3537 125.263 14.9392 125.399 15.6232 125.326L14.5029 120.576Z" fill="#4361EE"/>
<path d="M18.1367 101.786C18.1321 102.533 18 103.204 17.7403 103.8C17.47 104.395 17.0938 104.862 16.6117 105.201C16.1296 105.539 15.5686 105.706 14.9286 105.702L14.9406 103.75C15.4208 103.711 15.8166 103.527 16.128 103.198C16.4394 102.858 16.597 102.385 16.6007 101.777C16.6046 101.147 16.4583 100.656 16.1618 100.302C15.8546 99.948 15.4611 99.7696 14.9811 99.7666C14.6077 99.7643 14.3031 99.8745 14.067 100.097C13.831 100.309 13.648 100.58 13.518 100.91C13.3881 101.229 13.2466 101.676 13.0938 102.251C12.8973 102.975 12.7017 103.566 12.5069 104.024C12.3015 104.47 11.9898 104.852 11.5718 105.17C11.1538 105.487 10.5982 105.644 9.90489 105.64C9.2649 105.636 8.70589 105.472 8.22787 105.149C7.74984 104.826 7.3846 104.376 7.13215 103.798C6.87969 103.221 6.75579 102.553 6.76044 101.796C6.76706 100.719 7.04446 99.8405 7.59264 99.1612C8.13023 98.4712 8.86857 98.0917 9.80768 98.0228L9.79529 100.039C9.38977 100.068 9.04193 100.258 8.75177 100.608C8.46162 100.959 8.31477 101.422 8.31123 101.998C8.30802 102.52 8.43873 102.948 8.70336 103.28C8.96799 103.612 9.35097 103.78 9.85229 103.783C10.1936 103.785 10.4769 103.686 10.7021 103.484C10.9168 103.272 11.0891 103.007 11.219 102.688C11.349 102.368 11.4904 101.932 11.6431 101.378C11.8503 100.643 12.0566 100.047 12.2621 99.5899C12.4676 99.1218 12.7847 98.7291 13.2134 98.4117C13.6314 98.0836 14.1924 97.9218 14.8964 97.9261C15.4617 97.9295 15.9941 98.0875 16.4935 98.3999C16.993 98.7016 17.3956 99.1468 17.7013 99.7353C17.9964 100.313 18.1416 100.997 18.1367 101.786Z" fill="#4361EE"/>
<path d="M8.77847 91.0932C8.73723 91.4213 8.59152 91.6825 8.34133 91.8768C8.09114 92.0711 7.80201 92.1477 7.47392 92.1064C7.14584 92.0652 6.88464 91.9195 6.69032 91.6693C6.49601 91.4191 6.41947 91.13 6.46071 90.8019C6.50061 90.4844 6.64566 90.2285 6.89585 90.0341C7.14603 89.8398 7.43517 89.7633 7.76326 89.8045C8.09134 89.8458 8.35254 89.9915 8.54686 90.2417C8.74117 90.4919 8.81838 90.7757 8.77847 91.0932ZM10.0491 90.3499L18.7963 91.4493L18.5688 93.2591L9.82162 92.1596L10.0491 90.3499Z" fill="#4361EE"/>
<path d="M12.1954 78.8621C12.3661 78.1901 12.6579 77.6259 13.071 77.1695C13.4866 76.7028 14.0065 76.3891 14.6306 76.2284C15.2546 76.0677 15.9544 76.0859 16.7298 76.2828L21.7698 77.5627L21.3248 79.315L16.5484 78.1021C15.7833 77.9078 15.1506 77.9507 14.6503 78.2309C14.1396 78.5084 13.8003 78.978 13.6322 79.6396C13.4642 80.3013 13.5371 80.8811 13.8509 81.3789C14.1569 81.8639 14.6925 82.2035 15.4575 82.3977L20.2339 83.6107L19.785 85.3786L11.2402 83.2087L11.6891 81.4408L12.6661 81.6889C12.3881 81.3101 12.2074 80.8735 12.1238 80.3791C12.0429 79.8743 12.0668 79.3686 12.1954 78.8621Z" fill="#4361EE"/>
<path d="M19.1227 71.8173C18.2862 71.4675 17.6231 70.9936 17.1332 70.3956C16.6376 69.7837 16.3431 69.1055 16.2497 68.3612C16.1564 67.6169 16.2723 66.856 16.5974 66.0786C17.009 65.0945 17.5847 64.3814 18.3245 63.9393C19.0587 63.4833 19.9061 63.3232 20.8667 63.459L20.1074 65.2746C19.6422 65.2535 19.2285 65.358 18.8664 65.5881C18.5042 65.8182 18.2202 66.1792 18.0145 66.6712C17.7264 67.3601 17.7419 68.0141 18.0611 68.6332C18.3745 69.2383 18.9692 69.724 19.845 70.0903C20.7208 70.4566 21.4891 70.5409 22.1499 70.3432C22.8148 70.1357 23.2913 69.6875 23.5794 68.9986C23.9868 68.0244 23.8283 67.2008 23.1039 66.5278L23.8632 64.7122C24.5911 65.2941 25.0652 66.0127 25.2856 66.868C25.4961 67.7191 25.3998 68.6269 24.9964 69.5913C24.6713 70.3687 24.211 70.9855 23.6155 71.4418C23.0102 71.8939 22.3206 72.1605 21.5468 72.2415C20.7672 72.3085 19.9592 72.1672 19.1227 71.8173Z" fill="#4361EE"/>
<path d="M28.6807 52.6477C28.9645 52.8174 29.2099 52.9889 29.4169 53.1624L25.9606 58.9441C26.5923 59.2595 27.2116 59.3253 27.8186 59.1414C28.4257 58.9575 28.9043 58.5725 29.2546 57.9866C29.7581 57.1443 29.7614 56.3385 29.2644 55.5691L30.2742 53.8799C30.8332 54.5248 31.1564 55.2834 31.2438 56.1559C31.3275 57.0137 31.1039 57.8866 30.573 58.7747C30.1406 59.498 29.5918 60.0522 28.9266 60.4375C28.2576 60.8081 27.5317 60.9831 26.7487 60.9624C25.962 60.9271 25.1796 60.6768 24.4014 60.2116C23.6232 59.7464 23.0341 59.183 22.6343 58.5215C22.2307 57.8453 22.0384 57.1276 22.0573 56.3684C22.0816 55.6 22.3155 54.845 22.7588 54.1034C23.1857 53.3893 23.7217 52.8461 24.3668 52.4736C25.012 52.1012 25.7114 51.9291 26.4651 51.9571C27.2097 51.9797 27.9482 52.2099 28.6807 52.6477ZM27.2093 53.9864C26.627 53.6508 26.0415 53.5804 25.4528 53.7753C24.8641 53.9701 24.3919 54.3651 24.0361 54.9602C23.7132 55.5004 23.6108 56.0668 23.7288 56.6593C23.8377 57.2463 24.1632 57.7516 24.7054 58.1751L27.2093 53.9864Z" fill="#4361EE"/>
<path d="M39.0247 43.2826C39.1108 41.9317 39.1578 40.8488 39.1657 40.0342C39.1735 39.2044 39.095 38.4319 38.9303 37.7168C38.7656 37.0017 38.4626 36.4274 38.0213 35.9938C37.5648 35.5452 37.0988 35.3042 36.6233 35.2707C36.1553 35.2296 35.6933 35.4411 35.2373 35.9052C34.7962 36.3541 34.5969 36.8461 34.6393 37.3813C34.6816 37.9014 34.935 38.4045 35.3994 38.8907L34.1659 40.1461C33.3209 39.2711 32.9131 38.362 32.9425 37.4189C32.9718 36.4607 33.3639 35.5974 34.119 34.8289C34.9338 33.9996 35.7975 33.5771 36.7101 33.5615C37.6301 33.5383 38.4705 33.9005 39.2314 34.648C39.7792 35.1863 40.1697 35.8466 40.4029 36.629C40.6359 37.3963 40.7635 38.1721 40.7855 38.9563C40.8073 39.7255 40.7892 40.6648 40.7311 41.7741L40.683 42.7362L44.2377 39.1182L45.3219 40.1835L39.8722 45.7303L38.9249 44.7995L39.0247 43.2826Z" fill="#4361EE"/>
<path d="M45.2303 32.6023C44.1183 31.1297 43.4973 29.7941 43.3675 28.5956C43.2398 27.3821 43.7846 26.3158 45.0018 25.3966C46.2191 24.4774 47.3895 24.2485 48.5132 24.7098C49.6389 25.1563 50.7578 26.1158 51.8699 27.5884C52.9948 29.0781 53.6243 30.4339 53.7585 31.6559C53.8947 32.8629 53.3542 33.926 52.1369 34.8452C50.9197 35.7644 49.745 35.9965 48.6128 35.5416C47.4827 35.0717 46.3552 34.0919 45.2303 32.6023ZM50.4398 28.6683C49.9192 27.9788 49.432 27.4311 48.9784 27.0251C48.5333 26.6127 48.0621 26.3604 47.5647 26.2682C47.0609 26.1674 46.5409 26.3195 46.0046 26.7245C45.4683 27.1295 45.1797 27.588 45.1387 28.1002C45.0913 28.6038 45.2008 29.1293 45.4671 29.6767C45.742 30.2176 46.1397 30.8329 46.6604 31.5224C47.2003 32.2374 47.6961 32.8054 48.1476 33.2263C48.5991 33.6472 49.0735 33.9038 49.5709 33.996C50.0768 34.0818 50.5979 33.9222 51.1342 33.5173C51.6704 33.1123 51.9623 32.658 52.0097 32.1544C52.0656 31.6443 51.9529 31.1146 51.6717 30.5651C51.3904 30.0156 50.9798 29.3834 50.4398 28.6683Z" fill="#4361EE"/>
<path d="M59.1239 27.2752C59.5989 26.0076 59.9585 24.9852 60.2028 24.208C60.4514 23.4162 60.6008 22.6543 60.651 21.9222C60.7012 21.1901 60.5782 20.5525 60.282 20.0094C59.9755 19.4475 59.5996 19.0815 59.1544 18.9112C58.7185 18.7359 58.215 18.804 57.6438 19.1155C57.0913 19.4169 56.7576 19.8298 56.6427 20.3542C56.532 20.8641 56.6282 21.4192 56.9313 22.0193L55.3862 22.8621C54.832 21.7793 54.706 20.7909 55.0082 19.8971C55.3147 18.9887 55.9408 18.2766 56.8866 17.7607C57.9072 17.204 58.8564 17.0507 59.7341 17.301C60.6212 17.5462 61.3201 18.1369 61.8309 19.0734C62.1986 19.7476 62.3804 20.4929 62.3762 21.3093C62.3762 22.1112 62.2727 22.8906 62.0659 23.6474C61.8633 24.3897 61.573 25.2831 61.195 26.3277L60.8694 27.2343L65.3221 24.8055L66.05 26.1399L59.2235 29.8635L58.5876 28.6977L59.1239 27.2752Z" fill="#4361EE"/>
<path d="M70.3295 21.8097C70.9799 20.6226 71.4813 19.6617 71.8336 18.9271C72.1922 18.1788 72.4485 17.4459 72.6023 16.7283C72.7561 16.0108 72.725 15.3622 72.5089 14.7824C72.2855 14.1827 71.9655 13.7669 71.549 13.5351C71.1425 13.2996 70.6344 13.2954 70.0247 13.5226C69.435 13.7423 69.0459 14.1036 68.8576 14.6063C68.6756 15.0953 68.6919 15.6584 68.9065 16.2955L67.2573 16.9101C66.8627 15.7594 66.8785 14.7632 67.3047 13.9214C67.7372 13.0659 68.4583 12.45 69.4678 12.0738C70.5573 11.6679 71.5186 11.6512 72.3518 12.0237C73.195 12.3925 73.8028 13.0766 74.1752 14.0762C74.4434 14.7958 74.5173 15.5594 74.397 16.3669C74.283 17.1607 74.0698 17.9174 73.7575 18.6371C73.4514 19.3431 73.037 20.1862 72.5144 21.1664L72.0631 22.0175L76.8159 20.2465L77.3466 21.6708L70.0601 24.386L69.5964 23.1415L70.3295 21.8097Z" fill="#4361EE"/>
<path d="M95.8345 11.6417L96.0167 13.1669L89.4872 13.9469L89.305 12.4217L95.8345 11.6417Z" fill="#4361EE"/>
<path d="M115.761 18.9363L113.769 14.2065L112.388 14.0348L111.839 18.4489L110.029 18.2239L111.4 7.18879L115.211 7.6624C116.058 7.76765 116.754 8.00464 117.299 8.37338C117.855 8.74344 118.245 9.19499 118.469 9.72801C118.704 10.2624 118.783 10.8365 118.707 11.4504C118.617 12.1702 118.324 12.8002 117.827 13.3404C117.342 13.8712 116.652 14.1886 115.757 14.2924L117.92 19.2047L115.761 18.9363ZM112.567 12.5899L114.568 12.8386C115.245 12.9228 115.774 12.8166 116.155 12.5199C116.547 12.2246 116.778 11.7912 116.849 11.2196C116.92 10.648 116.806 10.1823 116.506 9.82267C116.209 9.45243 115.716 9.22455 115.027 9.13904L113.027 8.89039L112.567 12.5899Z" fill="#4361EE"/>
<path d="M131.828 18.0016C131.739 18.3202 131.639 18.6023 131.526 18.8478L125.036 17.044C124.899 17.7366 125 18.3513 125.338 18.888C125.676 19.4248 126.173 19.7846 126.831 19.9674C127.777 20.2302 128.555 20.0201 129.165 19.3373L131.061 19.8643C130.587 20.574 129.941 21.0863 129.123 21.4014C128.318 21.7091 127.417 21.7243 126.42 21.4473C125.608 21.2216 124.928 20.839 124.381 20.2994C123.846 19.7523 123.486 19.0985 123.298 18.3379C123.124 17.5699 123.159 16.7492 123.402 15.8756C123.644 15.0021 124.032 14.285 124.564 13.7243C125.109 13.1563 125.751 12.781 126.488 12.5984C127.235 12.4186 128.025 12.4444 128.858 12.6757C129.659 12.8985 130.325 13.2718 130.855 13.7954C131.384 14.3191 131.736 14.948 131.908 15.6823C132.083 16.4063 132.056 17.1794 131.828 18.0016ZM130.148 16.9368C130.317 16.2865 130.23 15.7032 129.887 15.187C129.543 14.6708 129.037 14.3199 128.369 14.1342C127.763 13.9657 127.19 14.0167 126.649 14.2873C126.112 14.5476 125.711 14.9952 125.446 15.6301L130.148 16.9368Z" fill="#4361EE"/>
<path d="M135.598 19.6208C135.958 18.8119 136.442 18.1692 137.051 17.6929C137.669 17.2208 138.342 16.9421 139.069 16.8568C139.81 16.766 140.531 16.8767 141.233 17.1888C141.866 17.4706 142.36 17.8422 142.716 18.3037C143.085 18.7597 143.328 19.2358 143.446 19.7319L143.966 18.5623L145.648 19.3101L142.065 27.3653L140.384 26.6175L140.917 25.4187C140.465 25.6731 139.939 25.8186 139.339 25.8553C138.739 25.8919 138.127 25.7715 137.504 25.4941C136.812 25.1863 136.256 24.7291 135.837 24.1225C135.422 23.5061 135.186 22.8053 135.126 22.0201C135.081 21.2295 135.238 20.4297 135.598 19.6208ZM142.178 22.5826C142.425 22.0271 142.523 21.4926 142.471 20.9793C142.429 20.4702 142.27 20.0261 141.995 19.647C141.72 19.2678 141.369 18.9829 140.94 18.7922C140.511 18.6014 140.064 18.5309 139.598 18.5806C139.137 18.6205 138.698 18.7932 138.282 19.0985C137.88 19.3983 137.555 19.826 137.308 20.3816C137.061 20.9371 136.957 21.4743 136.994 21.993C137.042 22.5162 137.201 22.9722 137.472 23.3611C137.756 23.7445 138.108 24.0295 138.527 24.2159C138.956 24.4066 139.403 24.4771 139.869 24.4274C140.335 24.3778 140.771 24.1981 141.177 23.8885C141.597 23.5734 141.931 23.1381 142.178 22.5826Z" fill="#4361EE"/>
<path d="M153.693 20.5113L147.584 30.6534L146.022 29.7122L152.131 19.5701L153.693 20.5113Z" fill="#4361EE"/>
<path d="M166.982 33.2956L164.753 35.6807L167.559 38.3021L166.543 39.3895L163.737 36.768L161.411 39.2583L164.568 42.2074L163.552 43.2948L159.062 39.1004L166.665 30.9631L171.154 35.1574L170.138 36.2447L166.982 33.2956Z" fill="#4361EE"/>
<path d="M168.959 49.68C168.52 49.1436 168.219 48.5831 168.058 47.9986C167.911 47.4155 167.901 46.865 168.029 46.3471C168.164 45.8224 168.432 45.3829 168.831 45.0284L170.027 46.4891C169.758 46.7504 169.626 47.0859 169.631 47.4957C169.651 47.907 169.816 48.3024 170.127 48.682C170.452 49.0781 170.776 49.3226 171.1 49.4155C171.439 49.5099 171.729 49.4591 171.968 49.2631C172.224 49.0536 172.312 48.7744 172.233 48.4254C172.161 48.0847 171.983 47.5895 171.699 46.9397C171.42 46.3132 171.215 45.7849 171.083 45.3549C170.952 44.925 170.924 44.4788 171.001 44.0165C171.084 43.5624 171.348 43.1528 171.794 42.7879C172.157 42.4905 172.575 42.3274 173.048 42.2987C173.529 42.2632 174.018 42.3725 174.516 42.6267C175.02 42.8891 175.485 43.2803 175.911 43.8001C176.546 44.5759 176.859 45.3611 176.848 46.1559C176.852 46.9522 176.529 47.6439 175.88 48.2311L174.724 46.82C175.009 46.5452 175.151 46.222 175.15 45.8505C175.149 45.479 174.993 45.1035 174.682 44.7239C174.378 44.3525 174.075 44.1253 173.772 44.0421C173.47 43.9589 173.203 44.012 172.972 44.2012C172.79 44.3499 172.692 44.541 172.676 44.7744C172.661 45.0078 172.693 45.2498 172.774 45.5005C172.864 45.7443 173.007 46.0959 173.204 46.5551C173.477 47.1583 173.672 47.6742 173.789 48.1027C173.92 48.5327 173.949 48.9713 173.874 49.4187C173.799 49.866 173.546 50.2729 173.116 50.6394C172.728 50.957 172.294 51.1336 171.812 51.1691C171.331 51.2046 170.842 51.0953 170.344 50.8411C169.853 50.5952 169.392 50.2081 168.959 49.68Z" fill="#4361EE"/>
<path d="M181.218 54.0321L177.102 56.6546C176.823 56.8322 176.661 57.0242 176.615 57.2304C176.584 57.4398 176.669 57.702 176.87 58.0168L177.472 58.9614L176.19 59.7782L175.416 58.5638C174.975 57.8711 174.798 57.2372 174.887 56.662C174.976 56.0868 175.385 55.5671 176.113 55.1028L180.229 52.4804L179.67 51.6033L180.925 50.8037L181.484 51.6808L183.332 50.5028L184.321 52.0546L182.473 53.2325L183.625 55.0406L182.37 55.8403L181.218 54.0321Z" fill="#4361EE"/>
<path d="M182.171 61.2915C182.972 60.9153 183.759 60.7463 184.531 60.7845C185.308 60.8323 185.999 61.0617 186.604 61.4728C187.224 61.8889 187.697 62.4446 188.023 63.1398C188.318 63.7674 188.448 64.3719 188.415 64.9532C188.396 65.5397 188.268 66.059 188.033 66.5113L189.191 65.9673L189.973 67.6329L181.993 71.3794L181.211 69.7138L182.399 69.1562C181.891 69.053 181.398 68.8189 180.92 68.454C180.442 68.0891 180.058 67.5976 179.768 66.9797C179.447 66.2941 179.326 65.5849 179.406 64.8521C179.496 64.1147 179.775 63.4297 180.244 62.7971C180.727 62.1696 181.369 61.6678 182.171 61.2915ZM185.208 67.8372C185.759 67.5788 186.182 67.2385 186.479 66.8164C186.78 66.404 186.951 65.9644 186.991 65.4978C187.031 65.0311 186.952 64.5854 186.752 64.1605C186.553 63.7357 186.261 63.3897 185.876 63.1225C185.501 62.8508 185.056 62.6942 184.542 62.6529C184.042 62.6167 183.517 62.7277 182.966 62.9861C182.416 63.2445 181.985 63.5822 181.674 63.9992C181.368 64.4258 181.19 64.8747 181.14 65.3459C181.104 65.8222 181.184 66.2679 181.379 66.6831C181.578 67.108 181.871 67.454 182.255 67.7212C182.64 67.9884 183.087 68.1378 183.597 68.1695C184.121 68.2063 184.658 68.0955 185.208 67.8372Z" fill="#4361EE"/>
<path d="M191.076 75.5116L186.43 77.0026C186.115 77.1037 185.909 77.2481 185.813 77.4359C185.73 77.6306 185.745 77.9057 185.859 78.2612L186.201 79.3276L184.754 79.7921L184.314 78.4209C184.063 77.6389 184.054 76.981 184.286 76.4472C184.518 75.9135 185.045 75.5146 185.868 75.2506L190.514 73.7596L190.196 72.7693L191.613 72.3146L191.931 73.3049L194.018 72.6351L194.58 74.3871L192.493 75.0569L193.148 77.0984L191.732 77.553L191.076 75.5116Z" fill="#4361EE"/>
<path d="M191.923 91.2794C191.598 91.3408 191.301 91.3753 191.031 91.3829L189.779 84.7642C189.097 84.9474 188.591 85.3092 188.258 85.8496C187.926 86.3901 187.824 86.9957 187.951 87.6665C188.133 88.6307 188.665 89.2357 189.548 89.4814L189.913 91.4151C189.067 91.3037 188.322 90.9507 187.678 90.356C187.046 89.7699 186.634 88.9685 186.441 87.9518C186.285 87.1238 186.328 86.345 186.57 85.6153C186.824 84.8942 187.251 84.2815 187.85 83.7774C188.462 83.2817 189.214 82.9497 190.105 82.7813C190.995 82.6128 191.81 82.6434 192.548 82.8729C193.299 83.1109 193.919 83.5202 194.409 84.1006C194.9 84.6916 195.226 85.4115 195.387 86.2605C195.541 87.078 195.501 87.8401 195.266 88.5468C195.03 89.2536 194.621 89.8465 194.039 90.3257C193.467 90.803 192.761 91.1208 191.923 91.2794ZM192.135 89.3015C192.794 89.1662 193.278 88.8303 193.589 88.2938C193.9 87.7574 193.992 87.1485 193.863 86.4672C193.746 85.8489 193.447 85.3572 192.965 84.9923C192.494 84.6254 191.915 84.4635 191.229 84.5065L192.135 89.3015Z" fill="#4361EE"/>
<path d="M187.664 107.91C187.702 107.164 187.864 106.5 188.15 105.916C188.447 105.333 188.843 104.883 189.34 104.567C189.837 104.251 190.405 104.109 191.044 104.141L190.945 106.091C190.463 106.109 190.06 106.275 189.734 106.59C189.407 106.915 189.229 107.381 189.198 107.988C189.166 108.617 189.29 109.114 189.57 109.481C189.861 109.848 190.247 110.044 190.726 110.069C191.099 110.088 191.408 109.991 191.654 109.78C191.899 109.578 192.094 109.316 192.239 108.992C192.383 108.679 192.544 108.239 192.723 107.671C192.951 106.957 193.173 106.375 193.388 105.927C193.613 105.49 193.942 105.122 194.374 104.824C194.805 104.525 195.368 104.394 196.06 104.429C196.699 104.461 197.25 104.65 197.713 104.994C198.176 105.338 198.521 105.804 198.748 106.392C198.974 106.981 199.068 107.653 199.029 108.409C198.974 109.485 198.658 110.35 198.08 111.004C197.512 111.67 196.757 112.016 195.816 112.042L195.919 110.029C196.325 110.018 196.681 109.844 196.987 109.507C197.292 109.17 197.46 108.714 197.489 108.138C197.516 107.616 197.404 107.184 197.155 106.84C196.905 106.496 196.53 106.311 196.029 106.286C195.689 106.268 195.401 106.355 195.167 106.546C194.943 106.748 194.759 107.006 194.615 107.319C194.471 107.632 194.31 108.062 194.133 108.608C193.893 109.333 193.66 109.919 193.434 110.367C193.208 110.825 192.874 111.203 192.431 111.501C191.999 111.81 191.431 111.947 190.728 111.911C190.164 111.882 189.639 111.701 189.154 111.366C188.668 111.043 188.286 110.58 188.007 109.978C187.738 109.388 187.624 108.698 187.664 107.91Z" fill="#4361EE"/>
<path d="M196.534 119.011C196.59 118.685 196.747 118.431 197.006 118.248C197.264 118.065 197.557 118.001 197.883 118.057C198.209 118.113 198.463 118.27 198.646 118.529C198.829 118.788 198.892 119.08 198.836 119.406C198.782 119.721 198.626 119.97 198.367 120.153C198.109 120.336 197.816 120.4 197.491 120.344C197.165 120.288 196.91 120.131 196.727 119.872C196.544 119.613 196.48 119.326 196.534 119.011ZM195.231 119.697L186.542 118.207L186.85 116.409L195.54 117.899L195.231 119.697Z" fill="#4361EE"/>
<path d="M192.573 131.077C192.372 131.741 192.056 132.291 191.622 132.729C191.186 133.176 190.653 133.466 190.022 133.599C189.392 133.732 188.693 133.682 187.928 133.451L182.95 131.947L183.473 130.216L188.19 131.641C188.946 131.87 189.58 131.855 190.092 131.598C190.615 131.343 190.975 130.889 191.172 130.236C191.37 129.582 191.323 129 191.032 128.489C190.748 127.99 190.228 127.627 189.472 127.399L184.755 125.973L185.283 124.227L193.722 126.778L193.194 128.524L192.229 128.232C192.49 128.623 192.651 129.067 192.712 129.565C192.771 130.073 192.724 130.577 192.573 131.077Z" fill="#4361EE"/>
<path d="M185.337 137.804C186.157 138.191 186.798 138.694 187.261 139.314C187.729 139.947 187.993 140.638 188.053 141.386C188.112 142.133 187.963 142.888 187.603 143.65C187.148 144.615 186.541 145.302 185.782 145.71C185.028 146.133 184.174 146.255 183.221 146.076L184.061 144.296C184.524 144.338 184.942 144.253 185.314 144.039C185.686 143.825 185.986 143.477 186.214 142.995C186.533 142.32 186.546 141.666 186.255 141.033C185.969 140.414 185.397 139.903 184.538 139.497C183.68 139.092 182.916 138.974 182.247 139.142C181.574 139.319 181.077 139.746 180.759 140.421C180.308 141.376 180.43 142.206 181.123 142.91L180.283 144.69C179.582 144.076 179.141 143.337 178.959 142.473C178.787 141.613 178.924 140.711 179.37 139.765C179.729 139.003 180.217 138.408 180.832 137.978C181.457 137.554 182.158 137.318 182.935 137.272C183.716 137.24 184.517 137.417 185.337 137.804Z" fill="#4361EE"/>
<path d="M174.931 156.527C174.655 156.345 174.417 156.162 174.218 155.98L177.93 150.359C177.313 150.015 176.697 149.922 176.083 150.078C175.468 150.235 174.972 150.598 174.596 151.168C174.056 151.987 174.016 152.792 174.478 153.582L173.394 155.225C172.864 154.556 172.575 153.783 172.527 152.908C172.482 152.047 172.744 151.185 173.315 150.321C173.779 149.618 174.352 149.089 175.034 148.734C175.719 148.394 176.452 148.251 177.233 148.307C178.017 148.378 178.788 148.663 179.544 149.162C180.301 149.662 180.864 150.251 181.234 150.93C181.607 151.623 181.767 152.349 181.714 153.107C181.655 153.873 181.388 154.617 180.912 155.338C180.453 156.032 179.894 156.551 179.232 156.894C178.571 157.237 177.865 157.378 177.113 157.316C176.37 157.26 175.643 156.997 174.931 156.527ZM176.46 155.256C177.027 155.617 177.609 155.713 178.206 155.545C178.803 155.377 179.292 155.003 179.674 154.425C180.021 153.9 180.149 153.338 180.057 152.741C179.975 152.15 179.672 151.631 179.149 151.183L176.46 155.256Z" fill="#4361EE"/>
<path d="M164.178 165.42C164.031 166.765 163.936 167.845 163.891 168.658C163.847 169.487 163.89 170.262 164.023 170.984C164.155 171.706 164.432 172.293 164.854 172.746C165.29 173.215 165.745 173.476 166.218 173.531C166.684 173.593 167.155 173.402 167.631 172.959C168.092 172.53 168.313 172.048 168.295 171.511C168.276 170.99 168.045 170.476 167.603 169.969L168.891 168.77C169.696 169.682 170.063 170.609 169.991 171.55C169.919 172.506 169.489 173.351 168.7 174.084C167.849 174.876 166.967 175.26 166.055 175.235C165.135 175.217 164.311 174.817 163.585 174.036C163.062 173.474 162.701 172.797 162.503 172.005C162.305 171.228 162.212 170.447 162.225 169.663C162.238 168.893 162.298 167.956 162.406 166.85L162.497 165.891L158.784 169.346L157.748 168.234L163.441 162.936L164.345 163.909L164.178 165.42Z" fill="#4361EE"/>
<path d="M157.5 175.811C158.545 177.332 159.106 178.694 159.182 179.897C159.255 181.115 158.663 182.156 157.406 183.02C156.149 183.884 154.969 184.06 153.867 183.549C152.763 183.053 151.688 182.044 150.643 180.523C149.586 178.984 149.018 177.602 148.938 176.375C148.856 175.163 149.444 174.125 150.701 173.262C151.958 172.398 153.142 172.218 154.253 172.724C155.361 173.244 156.443 174.273 157.5 175.811ZM152.12 179.508C152.609 180.22 153.071 180.789 153.506 181.215C153.932 181.647 154.392 181.92 154.885 182.035C155.383 182.158 155.91 182.029 156.464 181.649C157.017 181.268 157.326 180.823 157.39 180.313C157.46 179.812 157.374 179.282 157.133 178.723C156.882 178.171 156.513 177.538 156.023 176.826C155.516 176.088 155.046 175.498 154.614 175.057C154.182 174.617 153.719 174.339 153.226 174.225C152.725 174.116 152.197 174.252 151.643 174.633C151.089 175.014 150.778 175.454 150.708 175.955C150.629 176.462 150.718 176.997 150.974 177.558C151.231 178.12 151.612 178.77 152.12 179.508Z" fill="#4361EE"/>
<path d="M143.382 180.511C142.851 181.756 142.446 182.762 142.167 183.527C141.883 184.307 141.7 185.061 141.617 185.79C141.534 186.52 141.628 187.162 141.9 187.718C142.181 188.293 142.54 188.675 142.977 188.865C143.405 189.06 143.911 189.015 144.495 188.729C145.061 188.453 145.413 188.055 145.551 187.536C145.684 187.032 145.613 186.473 145.337 185.86L146.919 185.087C147.424 186.194 147.505 187.187 147.163 188.066C146.817 188.96 146.159 189.643 145.191 190.116C144.147 190.627 143.192 190.737 142.326 190.448C141.451 190.163 140.779 189.542 140.311 188.584C139.973 187.894 139.825 187.141 139.866 186.326C139.902 185.524 140.04 184.751 140.281 184.004C140.516 183.271 140.846 182.392 141.271 181.365L141.637 180.474L137.08 182.701L136.412 181.335L143.399 177.921L143.982 179.114L143.382 180.511Z" fill="#4361EE"/>
<path d="M131.943 185.47C131.24 186.626 130.696 187.564 130.311 188.282C129.92 189.013 129.631 189.734 129.445 190.444C129.259 191.154 129.261 191.803 129.451 192.392C129.648 193.001 129.949 193.431 130.354 193.681C130.75 193.935 131.257 193.962 131.877 193.762C132.475 193.569 132.88 193.225 133.091 192.732C133.295 192.251 133.304 191.688 133.118 191.042L134.793 190.502C135.135 191.669 135.075 192.664 134.612 193.485C134.141 194.321 133.393 194.904 132.368 195.234C131.261 195.591 130.3 195.565 129.485 195.155C128.659 194.749 128.082 194.038 127.755 193.023C127.519 192.292 127.48 191.526 127.636 190.725C127.785 189.937 128.032 189.191 128.376 188.486C128.714 187.794 129.166 186.97 129.732 186.014L130.22 185.184L125.393 186.741L124.927 185.294L132.328 182.908L132.735 184.172L131.943 185.47Z" fill="#4361EE"/>
<path d="M106.008 194.486L105.895 192.954L112.453 192.467L112.566 193.999L106.008 194.486Z" fill="#4361EE"/>
</svg>
