<svg width="12" height="16" viewBox="0 0 12 16" fill="none" xmlns="http://www.w3.org/2000/svg">
<path d="M11.4 6.4C11.4 7.1355 11.0804 8.07187 10.5319 9.1111C9.99103 10.1358 9.26284 11.1957 8.52369 12.1606C7.78619 13.1234 7.04721 13.9794 6.49189 14.5953C6.30421 14.8034 6.13784 14.9838 6 15.1312C5.86217 14.9838 5.69579 14.8034 5.50811 14.5953C4.95279 13.9794 4.21381 13.1234 3.47631 12.1606C2.73716 11.1957 2.00897 10.1358 1.46812 9.1111C0.919585 8.07187 0.6 7.1355 0.6 6.4C0.6 3.15968 3.05355 0.6 6 0.6C8.94646 0.6 11.4 3.15968 11.4 6.4Z" stroke="white" stroke-width="1.2"/>
<path d="M6.15 6.39998C6.15 6.54751 6.04697 6.59998 6 6.59998C5.95303 6.59998 5.85 6.54751 5.85 6.39998C5.85 6.25245 5.95304 6.19998 6 6.19998C6.04696 6.19998 6.15 6.25245 6.15 6.39998Z" fill="#2B2B2B" stroke="white" stroke-width="1.2" stroke-linecap="round" stroke-linejoin="round"/>
</svg>
