<svg width="16" height="12" viewBox="0 0 16 12" fill="none" xmlns="http://www.w3.org/2000/svg">
<mask id="path-1-inside-1_20_5" fill="white">
<path d="M4 3.20001L8 6.00001L12 3.20001"/>
</mask>
<path d="M4.68815 2.21693C4.14522 1.83688 3.39698 1.96892 3.01692 2.51186C2.63686 3.0548 2.76891 3.80303 3.31185 4.18309L4.68815 2.21693ZM8 6.00001L7.31185 6.98309C7.72503 7.27232 8.27497 7.27232 8.68815 6.98309L8 6.00001ZM12.6882 4.18309C13.2311 3.80303 13.3631 3.0548 12.9831 2.51186C12.603 1.96892 11.8548 1.83688 11.3118 2.21693L12.6882 4.18309ZM3.31185 4.18309L7.31185 6.98309L8.68815 5.01693L4.68815 2.21693L3.31185 4.18309ZM8.68815 6.98309L12.6882 4.18309L11.3118 2.21693L7.31185 5.01693L8.68815 6.98309Z" fill="white" mask="url(#path-1-inside-1_20_5)"/>
<path d="M0.6 9.6V1.6C0.6 1.04771 1.04771 0.6 1.6 0.6H14.4C14.9523 0.6 15.4 1.04771 15.4 1.6V9.6C15.4 10.1523 14.9523 10.6 14.4 10.6H1.6C1.04771 10.6 0.6 10.1523 0.6 9.6Z" stroke="white" stroke-width="1.2"/>
</svg>
